<?xml version="1.0" encoding="UTF-8" standalone="no"?>
<svg
   xmlns:dc="http://purl.org/dc/elements/1.1/"
   xmlns:cc="http://creativecommons.org/ns#"
   xmlns:rdf="http://www.w3.org/1999/02/22-rdf-syntax-ns#"
   xmlns:svg="http://www.w3.org/2000/svg"
   xmlns="http://www.w3.org/2000/svg"
   xmlns:sodipodi="http://sodipodi.sourceforge.net/DTD/sodipodi-0.dtd"
   xmlns:inkscape="http://www.inkscape.org/namespaces/inkscape"
   width="353"
   height="304"
   version="1.1"
   id="svg10"
   sodipodi:docname="bg-bottom.svg"
   inkscape:version="0.92.4 (5da689c313, 2019-01-14)">
  <metadata
     id="metadata16">
    <rdf:RDF>
      <cc:Work
         rdf:about="">
        <dc:format>image/svg+xml</dc:format>
        <dc:type
           rdf:resource="http://purl.org/dc/dcmitype/StillImage" />
      </cc:Work>
    </rdf:RDF>
  </metadata>
  <defs
     id="defs14" />
  <sodipodi:namedview
     pagecolor="#ffffff"
     bordercolor="#666666"
     borderopacity="1"
     objecttolerance="10"
     gridtolerance="10"
     guidetolerance="10"
     inkscape:pageopacity="0"
     inkscape:pageshadow="2"
     inkscape:window-width="1920"
     inkscape:window-height="1001"
     id="namedview12"
     showgrid="false"
     inkscape:zoom="0.77631579"
     inkscape:cx="176.38526"
     inkscape:cy="198.55754"
     inkscape:window-x="-9"
     inkscape:window-y="-9"
     inkscape:window-maximized="1"
     inkscape:current-layer="svg10" />
  <g
     id="g829"
     transform="matrix(0.76381249,0,0,0.76381249,57.437551,90.079499)">
    <g
       id="g8"
       style="fill:none;fill-rule:evenodd;stroke:#d0d5f6;stroke-width:2">
      <path
         id="path2"
         d="m 180.29,759 c 102.087,-21.62 155.232,-61.312 159.437,-119.074 6.307,-86.643 -231.598,-17.186 -136.358,-198 95.241,-180.813 181.318,-185.29 136.358,-298 C 294.767,31.216 174.04,-27.954 33.79,16.8 -59.711,46.636 -110.862,157.345 -119.663,348.926"
         inkscape:connector-curvature="0" />
      <path
         id="path4"
         d="M 138.3,759 C 218.383,740.012 260.074,705.154 263.372,654.425 268.32,578.332 81.693,639.331 156.406,480.535 231.118,321.738 298.64,317.808 263.372,218.82 228.103,119.834 133.398,67.87 23.377,107.174 -49.97,133.378 -90.096,230.605 -97,398.859"
         inkscape:connector-curvature="0" />
      <path
         id="path6"
         d="m 102.065,761 c 60.604,-16.56 92.153,-46.963 94.65,-91.208 3.743,-66.367 -137.488,-13.165 -80.949,-151.664 56.54,-138.5 107.638,-141.927 80.948,-228.261 C 170.024,203.532 98.355,158.211 15.096,192.491 -40.41,215.345 -70.775,300.145 -76,446.892"
         inkscape:connector-curvature="0" />
    </g>
  </g>
</svg>
