<?xml version="1.0" encoding="UTF-8" standalone="no"?>
<svg
   xmlns:dc="http://purl.org/dc/elements/1.1/"
   xmlns:cc="http://creativecommons.org/ns#"
   xmlns:rdf="http://www.w3.org/1999/02/22-rdf-syntax-ns#"
   xmlns:svg="http://www.w3.org/2000/svg"
   xmlns="http://www.w3.org/2000/svg"
   xmlns:sodipodi="http://sodipodi.sourceforge.net/DTD/sodipodi-0.dtd"
   xmlns:inkscape="http://www.inkscape.org/namespaces/inkscape"
   width="375"
   height="658"
   version="1.1"
   id="svg10"
   sodipodi:docname="bg-top.svg"
   inkscape:version="0.92.4 (5da689c313, 2019-01-14)">
  <metadata
     id="metadata16">
    <rdf:RDF>
      <cc:Work
         rdf:about="">
        <dc:format>image/svg+xml</dc:format>
        <dc:type
           rdf:resource="http://purl.org/dc/dcmitype/StillImage" />
      </cc:Work>
    </rdf:RDF>
  </metadata>
  <defs
     id="defs14" />
  <sodipodi:namedview
     pagecolor="#ffffff"
     bordercolor="#666666"
     borderopacity="1"
     objecttolerance="10"
     gridtolerance="10"
     guidetolerance="10"
     inkscape:pageopacity="0"
     inkscape:pageshadow="2"
     inkscape:window-width="1920"
     inkscape:window-height="1001"
     id="namedview12"
     showgrid="false"
     inkscape:zoom="0.71732523"
     inkscape:cx="187.5"
     inkscape:cy="329"
     inkscape:window-x="-9"
     inkscape:window-y="-9"
     inkscape:window-maximized="1"
     inkscape:current-layer="svg10" />
  <g
     id="g8"
     transform="matrix(0.81163669,0,0,0.81163669,70.610363,-1.896783)"
     style="fill:none;fill-rule:evenodd;stroke:#d0d5f6;stroke-width:2">
    <path
       d="M 172.71,-101 C 70.623,-79.38 17.478,-39.688 13.273,18.074 6.966,104.717 244.871,35.26 149.631,216.074 54.39,396.887 -31.687,401.364 13.273,514.074 58.233,626.784 178.96,685.954 319.21,641.2 412.711,611.364 463.862,500.655 472.663,309.074"
       id="path2"
       inkscape:connector-curvature="0" />
    <path
       d="M 214.7,-101 C 134.617,-82.012 92.926,-47.154 89.628,3.575 84.68,79.668 271.307,18.669 196.594,177.465 121.882,336.262 54.36,340.192 89.628,439.18 124.897,538.166 219.602,590.13 329.623,550.826 402.97,524.622 443.096,427.395 450,259.141"
       id="path4"
       inkscape:connector-curvature="0" />
    <path
       d="m 250.935,-103 c -60.604,16.56 -92.153,46.963 -94.65,91.208 -3.743,66.367 137.488,13.165 80.949,151.664 -56.54,138.5 -107.638,141.927 -80.948,228.261 26.69,86.335 98.359,131.656 181.618,97.376 C 393.41,442.655 423.775,357.855 429,211.108"
       id="path6"
       inkscape:connector-curvature="0" />
  </g>
</svg>
