<svg xmlns="http://www.w3.org/2000/svg" xmlns:svg="http://www.w3.org/2000/svg" id="svg10" width="375" height="658" version="1.1"><metadata id="metadata16"/><g id="g8" fill="none" fill-rule="evenodd" stroke="#d0d5f6" stroke-width="2" transform="matrix(0.81163669,0,0,0.81163669,70.610363,-1.896783)"><path id="path2" d="M 172.71,-101 C 70.623,-79.38 17.478,-39.688 13.273,18.074 6.966,104.717 244.871,35.26 149.631,216.074 54.39,396.887 -31.687,401.364 13.273,514.074 58.233,626.784 178.96,685.954 319.21,641.2 412.711,611.364 463.862,500.655 472.663,309.074"/><path id="path4" d="M 214.7,-101 C 134.617,-82.012 92.926,-47.154 89.628,3.575 84.68,79.668 271.307,18.669 196.594,177.465 121.882,336.262 54.36,340.192 89.628,439.18 124.897,538.166 219.602,590.13 329.623,550.826 402.97,524.622 443.096,427.395 450,259.141"/><path id="path6" d="m 250.935,-103 c -60.604,16.56 -92.153,46.963 -94.65,91.208 -3.743,66.367 137.488,13.165 80.949,151.664 -56.54,138.5 -107.638,141.927 -80.948,228.261 26.69,86.335 98.359,131.656 181.618,97.376 C 393.41,442.655 423.775,357.855 429,211.108"/></g></svg>